<svg width="77" height="79" viewBox="0 0 77 79" fill="none" xmlns="http://www.w3.org/2000/svg">
<path d="M3.774 41.05C3.774 40.03 3.978 39.142 4.386 38.386C4.794 37.618 5.358 37.024 6.078 36.604C6.81 36.184 7.644 35.974 8.58 35.974C9.792 35.974 10.788 36.268 11.568 36.856C12.36 37.444 12.882 38.26 13.134 39.304H11.37C11.202 38.704 10.872 38.23 10.38 37.882C9.9 37.534 9.3 37.36 8.58 37.36C7.644 37.36 6.888 37.684 6.312 38.332C5.736 38.968 5.448 39.874 5.448 41.05C5.448 42.238 5.736 43.156 6.312 43.804C6.888 44.452 7.644 44.776 8.58 44.776C9.3 44.776 9.9 44.608 10.38 44.272C10.86 43.936 11.19 43.456 11.37 42.832H13.134C12.87 43.84 12.342 44.65 11.55 45.262C10.758 45.862 9.768 46.162 8.58 46.162C7.644 46.162 6.81 45.952 6.078 45.532C5.358 45.112 4.794 44.518 4.386 43.75C3.978 42.982 3.774 42.082 3.774 41.05ZM24.3196 40.69C24.3196 41.002 24.3016 41.332 24.2656 41.68H16.3816C16.4416 42.652 16.7716 43.414 17.3716 43.966C17.9836 44.506 18.7216 44.776 19.5856 44.776C20.2936 44.776 20.8816 44.614 21.3496 44.29C21.8296 43.954 22.1656 43.51 22.3576 42.958H24.1216C23.8576 43.906 23.3296 44.68 22.5376 45.28C21.7456 45.868 20.7616 46.162 19.5856 46.162C18.6496 46.162 17.8096 45.952 17.0656 45.532C16.3336 45.112 15.7576 44.518 15.3376 43.75C14.9176 42.97 14.7076 42.07 14.7076 41.05C14.7076 40.03 14.9116 39.136 15.3196 38.368C15.7276 37.6 16.2976 37.012 17.0296 36.604C17.7736 36.184 18.6256 35.974 19.5856 35.974C20.5216 35.974 21.3496 36.178 22.0696 36.586C22.7896 36.994 23.3416 37.558 23.7256 38.278C24.1216 38.986 24.3196 39.79 24.3196 40.69ZM22.6276 40.348C22.6276 39.724 22.4896 39.19 22.2136 38.746C21.9376 38.29 21.5596 37.948 21.0796 37.72C20.6116 37.48 20.0896 37.36 19.5136 37.36C18.6856 37.36 17.9776 37.624 17.3896 38.152C16.8136 38.68 16.4836 39.412 16.3996 40.348H22.6276ZM28.1197 37.954C28.4437 37.39 28.9237 36.922 29.5597 36.55C30.2077 36.166 30.9577 35.974 31.8097 35.974C32.6857 35.974 33.4777 36.184 34.1857 36.604C34.9057 37.024 35.4697 37.618 35.8777 38.386C36.2857 39.142 36.4897 40.024 36.4897 41.032C36.4897 42.028 36.2857 42.916 35.8777 43.696C35.4697 44.476 34.9057 45.082 34.1857 45.514C33.4777 45.946 32.6857 46.162 31.8097 46.162C30.9697 46.162 30.2257 45.976 29.5777 45.604C28.9417 45.22 28.4557 44.746 28.1197 44.182V50.68H26.4817V36.136H28.1197V37.954ZM34.8157 41.032C34.8157 40.288 34.6657 39.64 34.3657 39.088C34.0657 38.536 33.6577 38.116 33.1417 37.828C32.6377 37.54 32.0797 37.396 31.4677 37.396C30.8677 37.396 30.3097 37.546 29.7937 37.846C29.2897 38.134 28.8817 38.56 28.5697 39.124C28.2697 39.676 28.1197 40.318 28.1197 41.05C28.1197 41.794 28.2697 42.448 28.5697 43.012C28.8817 43.564 29.2897 43.99 29.7937 44.29C30.3097 44.578 30.8677 44.722 31.4677 44.722C32.0797 44.722 32.6377 44.578 33.1417 44.29C33.6577 43.99 34.0657 43.564 34.3657 43.012C34.6657 42.448 34.8157 41.788 34.8157 41.032ZM40.6438 37.486V43.3C40.6438 43.78 40.7458 44.122 40.9498 44.326C41.1538 44.518 41.5078 44.614 42.0118 44.614H43.2178V46H41.7418C40.8298 46 40.1458 45.79 39.6898 45.37C39.2338 44.95 39.0058 44.26 39.0058 43.3V37.486H37.7278V36.136H39.0058V33.652H40.6438V36.136H43.2178V37.486H40.6438ZM53.9504 36.136V46H52.3124V44.542C52.0004 45.046 51.5624 45.442 50.9984 45.73C50.4464 46.006 49.8344 46.144 49.1624 46.144C48.3944 46.144 47.7044 45.988 47.0924 45.676C46.4804 45.352 45.9944 44.872 45.6344 44.236C45.2864 43.6 45.1124 42.826 45.1124 41.914V36.136H46.7324V41.698C46.7324 42.67 46.9784 43.42 47.4704 43.948C47.9624 44.464 48.6344 44.722 49.4864 44.722C50.3624 44.722 51.0524 44.452 51.5564 43.912C52.0604 43.372 52.3124 42.586 52.3124 41.554V36.136H53.9504ZM58.3541 37.738C58.6421 37.174 59.0501 36.736 59.5781 36.424C60.1181 36.112 60.7721 35.956 61.5401 35.956V37.648H61.1081C59.2721 37.648 58.3541 38.644 58.3541 40.636V46H56.7161V36.136H58.3541V37.738ZM72.4309 40.69C72.4309 41.002 72.4129 41.332 72.3769 41.68H64.4929C64.5529 42.652 64.8829 43.414 65.4829 43.966C66.0949 44.506 66.8329 44.776 67.6969 44.776C68.4049 44.776 68.9929 44.614 69.4609 44.29C69.9409 43.954 70.2769 43.51 70.4689 42.958H72.2329C71.9689 43.906 71.4409 44.68 70.6489 45.28C69.8569 45.868 68.8729 46.162 67.6969 46.162C66.7609 46.162 65.9209 45.952 65.1769 45.532C64.4449 45.112 63.8689 44.518 63.4489 43.75C63.0289 42.97 62.8189 42.07 62.8189 41.05C62.8189 40.03 63.0229 39.136 63.4309 38.368C63.8389 37.6 64.4089 37.012 65.1409 36.604C65.8849 36.184 66.7369 35.974 67.6969 35.974C68.6329 35.974 69.4609 36.178 70.1809 36.586C70.9009 36.994 71.4529 37.558 71.8369 38.278C72.2329 38.986 72.4309 39.79 72.4309 40.69ZM70.7389 40.348C70.7389 39.724 70.6009 39.19 70.3249 38.746C70.0489 38.29 69.6709 37.948 69.1909 37.72C68.7229 37.48 68.2009 37.36 67.6249 37.36C66.7969 37.36 66.0889 37.624 65.5009 38.152C64.9249 38.68 64.5949 39.412 64.5109 40.348H70.7389Z" fill="white"/>
<path fill-rule="evenodd" clip-rule="evenodd" d="M73.0564 50C68.5464 65.0403 54.5977 76 38.0892 76C21.5807 76 7.632 65.0403 3.12205 50H0C4.59845 66.7186 19.9096 79 38.0892 79C56.2688 79 71.58 66.7186 76.1784 50H73.0564ZM3.43776 28C8.25537 13.4763 21.9488 3 38.0892 3C54.2296 3 67.923 13.4763 72.7406 28H75.889C70.965 11.794 55.9044 0 38.0892 0C20.274 0 5.21345 11.794 0.28939 28H3.43776Z" fill="white"/>
</svg>
